<?xml version="1.0" encoding="UTF-8"?>
<svg id="Layer_1" data-name="Layer 1" xmlns="http://www.w3.org/2000/svg" viewBox="0 0 56.22 55.98">
  <defs>
    <style>
      .cls-1 {
        fill: #9e92fc;
      }

      .cls-1, .cls-2 {
        stroke-width: 0px;
      }

      .cls-2 {
        fill: #17005a;
      }
    </style>
  </defs>
  <rect class="cls-2" width="56.22" height="55.98" rx="10.08" ry="10.08"/>
  <g>
    <path class="cls-1" d="M14.07,32.33l-2.26,6.86c-.04.24-.16.32-.36.32h-3.85c-.28,0-.36-.12-.28-.36,1.98-5.91,5.35-16.02,7.69-22.88.12-.4.24-.79.28-2.1,0-.16.08-.24.24-.24h5.27c.2,0,.24.04.32.2,2.66,7.69,5.79,17.13,8.53,25.02.08.24,0,.36-.2.36h-4.24c-.2,0-.32-.08-.36-.24l-2.38-6.94h-8.41ZM21.53,28.53c-.79-2.7-2.58-7.93-3.29-10.75h-.04c-.59,2.7-2.02,7.06-3.17,10.75h6.5Z"/>
    <path class="cls-1" d="M36.68,30.79c.08,3.09,1.79,5.31,5.63,5.31,1.39,0,3.01-.24,4.56-.91.16-.04.28-.04.28.2v3.01c0,.28-.08.4-.24.48-1.47.71-3.25.99-5.51.99-6.86.04-9.36-4.72-9.36-9.87,0-5.71,3.17-10.11,8.8-10.11s7.69,4.36,7.69,7.97c0,1.59-.16,2.54-.36,2.66-.48.2-1.98.28-4.12.28h-7.38ZM42.59,27.73c1.35,0,1.59-.12,1.59-.28.04-.08.04-.36.04-.48,0-1.23-.75-3.77-3.57-3.77-2.42,0-3.65,1.94-3.93,4.52h5.87Z"/>
  </g>
</svg>