<?xml version="1.0" encoding="UTF-8"?>
<svg id="Layer_1" data-name="Layer 1" xmlns="http://www.w3.org/2000/svg" viewBox="0 0 56.22 55.98">
  <defs>
    <style>
      .cls-1 {
        fill: #fefefe;
      }

      .cls-1, .cls-2, .cls-3 {
        stroke-width: 0px;
      }

      .cls-2 {
        fill: #fff;
      }

      .cls-3 {
        fill: #230200;
      }
    </style>
  </defs>
  <rect class="cls-3" width="56.22" height="55.98" rx="10.08" ry="10.08"/>
  <g>
    <path class="cls-2" d="M48.06,26.66c-.91-2.41-2.45-4.34-4.47-5.89-4.24-3.28-8.5-6.52-12.74-9.8-1.01-.79-2.42-.79-3.37-.17-.52.34-.87.8-.84,1.46.02.49.32.84.68,1.14,1.15.94,2.3,1.88,3.45,2.81.6.5,1.22.99,1.88,1.54h-15.96c-.35,0-.69-.01-1.04.03-1.04.15-1.88.61-2.41,1.55-.46.81-.19,1.77.61,2.24.43.25.89.33,1.38.33h8.07c.08,0,.16-.02.25.03-.07.06-.13.11-.19.15-4.93,3.78-9.85,7.57-14.79,11.35-.58.44-1.04.99-1.3,1.69-.66,1.71.42,3.27,2.25,3.25.9-.01,1.67-.37,2.36-.93,2.31-1.88,4.61-3.77,6.91-5.65.36-.3.73-.59,1.11-.9,0,.05.01.07.01.09,0,.09,0,.19-.01.29-.09.99.01,1.96.28,2.91.92,3.33,2.9,5.9,5.8,7.74,3.56,2.25,7.45,2.88,11.55,2.05,2.76-.54,5.19-1.78,7.23-3.72,2.22-2.12,3.62-4.68,4.01-7.74.25-2,0-3.94-.7-5.82ZM40.43,35.74c-1.54,1.36-3.37,2.08-5.42,2.22-2.45.17-4.68-.44-6.63-1.98-1.38-1.1-2.34-2.49-2.77-4.21-.48-1.96-.22-3.84.81-5.58,1.37-2.29,3.44-3.59,6.03-4.12.61-.13,1.22-.17,1.81-.18,2.2.03,4.17.65,5.88,2,1.61,1.29,2.66,2.94,2.94,5.02.36,2.75-.61,5.01-2.65,6.82Z"/>
    <path class="cls-1" d="M38.89,32.93c-1.13,1.21-2.59,1.85-4.51,1.9-1.78-.04-3.44-.75-4.64-2.38-1.16-1.57-1.2-3.88-.03-5.46,1.41-1.92,3.35-2.64,5.67-2.36,1.45.17,2.67.84,3.63,1.95,1.59,1.83,1.53,4.58-.11,6.35Z"/>
    <path class="cls-2" d="M38.89,32.93c-1.13,1.21-2.59,1.85-4.51,1.9-1.78-.04-3.44-.75-4.64-2.38-1.16-1.57-1.2-3.88-.03-5.46,1.41-1.92,3.35-2.64,5.67-2.36,1.45.17,2.67.84,3.63,1.95,1.59,1.83,1.53,4.58-.11,6.35Z"/>
  </g>
</svg>