<?xml version="1.0" encoding="UTF-8"?>
<svg id="Layer_1" data-name="Layer 1" xmlns="http://www.w3.org/2000/svg" xmlns:xlink="http://www.w3.org/1999/xlink" viewBox="0 0 56.22 55.98">
  <defs>
    <style>
      .cls-1 {
        fill: url(#linear-gradient);
      }

      .cls-1, .cls-2 {
        stroke-width: 0px;
      }

      .cls-2 {
        fill: #fff;
      }
    </style>
    <linearGradient id="linear-gradient" x1="28.11" y1="55.98" x2="28.11" y2="0" gradientUnits="userSpaceOnUse">
      <stop offset="0" stop-color="#563588"/>
      <stop offset="1" stop-color="#8a43ab"/>
    </linearGradient>
  </defs>
  <rect class="cls-1" width="56.22" height="55.98" rx="10.08" ry="10.08"/>
  <path class="cls-2" d="M32.54,39c1.69-.25,3.23-.53,4.68-1.13,3.71-1.53,5.4-4.48,5.86-8.31.36-3.02.02-5.86-2.06-8.26-.26-.3-.11-.55-.04-.84.43-1.63.31-3.23-.12-4.85-.2-.77-.6-.95-1.31-.86-1.77.25-3.31,1.04-4.76,2-.5.33-.94.4-1.51.26-3.41-.84-6.82-.83-10.23.01-.54.13-.96.06-1.42-.24-1.38-.89-2.83-1.63-4.45-1.98-.91-.2-1.54-.07-1.75,1.05-.3,1.53-.45,3.03-.03,4.55.12.42.07.73-.21,1.11-4.88,6.55-1.17,15.82,6.87,17.2.54.09,1.08.17,1.7.27-.68.87-1.16,1.79-1.33,2.84-.05.35-.32.41-.56.51-2.35.98-4.75.26-6.18-1.9-.49-.75-1-1.47-1.76-1.96-.34-.22-.7-.43-1.09-.55-.65-.2-1.55-.45-1.88.18-.34.65.58.93,1.04,1.27.94.69,1.67,1.61,2.01,2.66,1.06,3.28,3.91,3.87,6.86,3.6,1.36-.13,1.36-.15,1.37,1.24,0,.85.05,1.71.04,2.56-.01,1.37-.67,1.83-1.99,1.37-3-1.05-5.69-2.64-8.01-4.79C.17,34.82,2.66,15.5,17.21,7.72c13.81-7.39,31.2,1.02,34.06,16.46,2.11,11.39-4.24,22.63-14.98,26.52-1.72.62-2.26.25-2.26-1.57,0-1.84,0-3.69.02-5.53.02-1.65-.29-3.18-1.52-4.6Z"/>
</svg>