<?xml version="1.0" encoding="UTF-8"?>
<svg id="Layer_1" data-name="Layer 1" xmlns="http://www.w3.org/2000/svg" viewBox="0 0 56.22 55.98">
  <defs>
    <style>
      .cls-1 {
        fill: #3b0b07;
      }

      .cls-1, .cls-2 {
        stroke-width: 0px;
      }

      .cls-2 {
        fill: #fb9e2b;
      }
    </style>
  </defs>
  <rect class="cls-1" width="56.22" height="55.98" rx="10.08" ry="10.08"/>
  <g>
    <path class="cls-2" d="M18.69,32.33l-2.26,6.86c-.04.24-.16.32-.36.32h-3.85c-.28,0-.36-.12-.28-.36,1.98-5.91,5.35-16.02,7.69-22.88.12-.4.24-.79.28-2.1,0-.16.08-.24.24-.24h5.27c.2,0,.24.04.32.2,2.66,7.69,5.79,17.13,8.53,25.02.08.24,0,.36-.2.36h-4.24c-.2,0-.32-.08-.36-.24l-2.38-6.94h-8.41ZM26.15,28.53c-.79-2.7-2.58-7.93-3.29-10.75h-.04c-.59,2.7-2.02,7.06-3.17,10.75h6.5Z"/>
    <path class="cls-2" d="M38,15.2c0-1.43,1.11-2.38,2.62-2.38s2.54.95,2.54,2.42-1.07,2.38-2.62,2.38c-1.47,0-2.54-.91-2.54-2.42ZM38.28,20.56c0-.24.08-.32.28-.32h4.04c.2,0,.28.04.28.28v18.68c0,.24-.04.32-.32.32h-3.93c-.28,0-.36-.08-.36-.32v-18.64Z"/>
  </g>
</svg>