<?xml version="1.0" encoding="UTF-8"?>
<svg id="Layer_1" data-name="Layer 1" xmlns="http://www.w3.org/2000/svg" viewBox="0 0 56.22 55.98">
  <defs>
    <style>
      .cls-1 {
        fill: #0d1c36;
      }

      .cls-1, .cls-2 {
        stroke-width: 0px;
      }

      .cls-2 {
        fill: #3ba1fc;
      }
    </style>
  </defs>
  <rect class="cls-1" width="56.22" height="55.98" rx="10.08" ry="10.08"/>
  <g>
    <path class="cls-2" d="M12.53,14.21c0-.2.04-.28.24-.28,1.27-.04,4.08-.08,6.98-.08,7.38,0,10.07,3.85,10.11,8.49,0,6.19-4.92,8.92-10.59,8.92-.91,0-1.86,0-2.18-.04v8.01c0,.2-.08.28-.28.28h-4c-.2,0-.28-.08-.28-.28V14.21ZM17.09,27.54c.32,0,.87.04,2.3.04,2.89,0,5.91-1.11,5.91-5.16,0-3.21-1.98-4.92-5.51-4.92-1.43,0-2.42.04-2.7.08v9.95Z"/>
    <path class="cls-2" d="M39.14,23.45c-1.86,0-2.38.91-2.38,1.71,0,.95.48,1.47,3.37,2.78,3.85,1.71,5.43,3.21,5.43,5.95,0,3.97-3.01,5.99-7.14,5.99-2.06,0-4.24-.48-5.71-1.43-.2-.12-.28-.2-.28-.4v-3.53c0-.24.16-.28.32-.2,1.86,1.19,4,1.98,5.95,1.98,1.78,0,2.42-.91,2.42-1.82,0-.99-.67-1.63-3.41-2.86-3.81-1.67-5.2-3.25-5.2-6.11,0-3.21,2.5-5.63,6.94-5.63,2.3,0,3.89.48,4.92,1.07.2.12.24.28.24.48l-.04,3.17c0,.24-.12.4-.32.24-1.35-.75-3.21-1.39-5.12-1.39Z"/>
  </g>
</svg>