<?xml version="1.0" encoding="UTF-8"?>
<svg id="Layer_1" data-name="Layer 1" xmlns="http://www.w3.org/2000/svg" viewBox="0 0 56.22 55.98">
  <defs>
    <style>
      .cls-1 {
        fill: #000d57;
      }

      .cls-1, .cls-2 {
        stroke-width: 0px;
      }

      .cls-2 {
        fill: #98a0f9;
      }
    </style>
  </defs>
  <rect class="cls-1" width="56.22" height="55.98" rx="10.08" ry="10.08"/>
  <g>
    <path class="cls-2" d="M13.38,14.21c0-.2.04-.28.24-.28,1.27-.04,4.08-.08,6.98-.08,7.38,0,10.07,3.85,10.11,8.49,0,6.19-4.92,8.92-10.59,8.92-.91,0-1.86,0-2.18-.04v8.01c0,.2-.08.28-.28.28h-4c-.2,0-.28-.08-.28-.28V14.21ZM17.94,27.54c.32,0,.87.04,2.3.04,2.89,0,5.91-1.11,5.91-5.16,0-3.21-1.98-4.92-5.51-4.92-1.43,0-2.42.04-2.7.08v9.95Z"/>
    <path class="cls-2" d="M38.2,20.24c.24,0,.36.08.44.32.16.48.32,1.43.4,2.3,1.43-1.94,3.81-2.97,5.63-2.97.16,0,.32,0,.48.04.16,0,.2.04.2.32v3.61c0,.2-.04.28-.28.28-2.22-.08-4.56.79-5.83,2.18v12.93c0,.2-.08.28-.28.28h-4.01c-.24,0-.32-.08-.32-.32v-13.4c0-1.9-.08-4.04-.2-5.31-.04-.16,0-.24.24-.24h3.53Z"/>
  </g>
</svg>