<?xml version="1.0" encoding="UTF-8"?>
<svg id="Layer_1" data-name="Layer 1" xmlns="http://www.w3.org/2000/svg" viewBox="0 0 56.22 55.98">
  <defs>
    <style>
      .cls-1 {
        fill: #fefefe;
      }

      .cls-1, .cls-2 {
        stroke-width: 0px;
      }
    </style>
  </defs>
  <rect class="cls-2" width="56.22" height="55.98" rx="10.08" ry="10.08"/>
  <path class="cls-1" d="M11,39.36c1.37-.8,2.71-1.57,4.06-2.35.7-.4,1.4-.79,2.08-1.22.29-.18.49-.18.78,0,2.02,1.19,4.05,2.36,6.08,3.52.17.1.35.32.59.17.23-.15.13-.4.13-.61,0-2.93,0-5.87.01-8.8,0-.51-.19-.81-.61-1.05-2.49-1.43-4.97-2.87-7.46-4.3-.58-.33-.83-.18-.83.51,0,2.35,0,4.69,0,7.04,0,.26,0,.48-.29.64-2.03,1.17-4.05,2.35-6.07,3.53-.04.02-.1.02-.2.03,0-.2,0-.37,0-.55,0-6.23,0-12.47-.01-18.7,0-.45.16-.67.53-.88,5.41-3.1,10.82-6.21,16.22-9.32.16-.09.32-.17.47-.25.17.09.1.23.1.34,0,2.27,0,4.55.01,6.82,0,.33-.12.48-.39.63-2.05,1.17-4.08,2.36-6.13,3.54-.62.36-.62.53-.02.88,2.5,1.45,5.01,2.88,7.5,4.35.45.26.81.27,1.26,0,2.49-1.46,5-2.9,7.5-4.35.59-.34.58-.54-.03-.9-2.04-1.19-4.08-2.37-6.13-3.54-.29-.17-.4-.35-.39-.69.02-2.22.02-4.44,0-6.66,0-.41.04-.53.46-.28,5.43,3.17,10.88,6.32,16.32,9.48.22.13.41.23.4.57-.01,6.44-.01,12.87-.01,19.31,0,.05-.02.1-.04.2-1.36-.76-2.69-1.51-4.03-2.26-.69-.38-1.36-.78-2.06-1.14-.33-.17-.46-.37-.46-.76.02-2.31.01-4.62.01-6.93,0-.91-.12-.98-.88-.54-2.46,1.42-4.91,2.84-7.37,4.24-.43.25-.63.54-.63,1.05.02,2.92,0,5.83,0,8.75,0,.74.15.82.8.44,2.03-1.17,4.05-2.34,6.08-3.52.2-.12.37-.26.64-.1,2.08,1.22,4.17,2.43,6.32,3.68-.41.25-.78.47-1.15.69-5.21,3.01-10.42,6.01-15.63,9.03-.27.16-.48.21-.78.03-5.5-3.2-11.01-6.39-16.52-9.58-.08-.05-.15-.1-.27-.18Z"/>
</svg>